<svg width="411" height="182" viewBox="0 0 411 182" fill="none" xmlns="http://www.w3.org/2000/svg">
<rect x="13.5" y="14.5" width="151" height="152" rx="4.5" fill="#F3F3F3" stroke="#ADADAD"/>
<line x1="63.5" y1="167" x2="63.5" y2="14" stroke="#ADADAD"/>
<line x1="114.5" y1="167" x2="114.5" y2="14" stroke="#ADADAD"/>
<line x1="165" y1="116.5" x2="13" y2="116.5" stroke="#ADADAD"/>
<line x1="165" y1="65.5" x2="13" y2="65.5" stroke="#ADADAD"/>
<line x1="30.5" y1="64" x2="30.5" y2="16" stroke="#CCCCCC"/>
<line x1="46.5" y1="64" x2="46.5" y2="16" stroke="#CCCCCC"/>
<line x1="62.6863" y1="48.5" x2="15" y2="48.5" stroke="#CCCCCC"/>
<line x1="62.6863" y1="32.5" x2="15" y2="32.5" stroke="#CCCCCC"/>
<line x1="30.5" y1="115" x2="30.5" y2="67" stroke="#CCCCCC"/>
<line x1="46.5" y1="115" x2="46.5" y2="67" stroke="#CCCCCC"/>
<line x1="62.6863" y1="99.5" x2="15" y2="99.5" stroke="#CCCCCC"/>
<line x1="62.6863" y1="83.5" x2="15" y2="83.5" stroke="#CCCCCC"/>
<line x1="30.5" y1="165" x2="30.5" y2="117" stroke="#CCCCCC"/>
<line x1="46.5" y1="165" x2="46.5" y2="117" stroke="#CCCCCC"/>
<line x1="62.6863" y1="149.5" x2="15" y2="149.5" stroke="#CCCCCC"/>
<line x1="62.6863" y1="133.5" x2="15" y2="133.5" stroke="#CCCCCC"/>
<line x1="80.5" y1="64" x2="80.5" y2="16" stroke="#CCCCCC"/>
<line x1="96.5" y1="64" x2="96.5" y2="16" stroke="#CCCCCC"/>
<line x1="112.686" y1="48.5" x2="65" y2="48.5" stroke="#CCCCCC"/>
<line x1="112.686" y1="32.5" x2="65" y2="32.5" stroke="#CCCCCC"/>
<line x1="80.5" y1="115" x2="80.5" y2="67" stroke="#CCCCCC"/>
<line x1="96.5" y1="115" x2="96.5" y2="67" stroke="#CCCCCC"/>
<line x1="112.686" y1="99.5" x2="65" y2="99.5" stroke="#CCCCCC"/>
<line x1="112.686" y1="83.5" x2="65" y2="83.5" stroke="#CCCCCC"/>
<line x1="80.5" y1="165" x2="80.5" y2="117" stroke="#CCCCCC"/>
<line x1="96.5" y1="165" x2="96.5" y2="117" stroke="#CCCCCC"/>
<line x1="112.686" y1="149.5" x2="65" y2="149.5" stroke="#CCCCCC"/>
<line x1="112.686" y1="133.5" x2="65" y2="133.5" stroke="#CCCCCC"/>
<line x1="131.5" y1="64" x2="131.5" y2="16" stroke="#CCCCCC"/>
<line x1="147.5" y1="64" x2="147.5" y2="16" stroke="#CCCCCC"/>
<line x1="163.686" y1="48.5" x2="116" y2="48.5" stroke="#CCCCCC"/>
<line x1="163.686" y1="32.5" x2="116" y2="32.5" stroke="#CCCCCC"/>
<line x1="131.5" y1="115" x2="131.5" y2="67" stroke="#CCCCCC"/>
<line x1="147.5" y1="115" x2="147.5" y2="67" stroke="#CCCCCC"/>
<line x1="163.686" y1="99.5" x2="116" y2="99.5" stroke="#CCCCCC"/>
<line x1="163.686" y1="83.5" x2="116" y2="83.5" stroke="#CCCCCC"/>
<line x1="131.5" y1="165" x2="131.5" y2="117" stroke="#CCCCCC"/>
<line x1="147.5" y1="165" x2="147.5" y2="117" stroke="#CCCCCC"/>
<line x1="163.686" y1="149.5" x2="116" y2="149.5" stroke="#CCCCCC"/>
<line x1="163.686" y1="133.5" x2="116" y2="133.5" stroke="#CCCCCC"/>
<rect x="32" y="50" width="13" height="14" rx="3" fill="#FAEBD7"/>
<rect x="16" y="100" width="13" height="14" rx="3" fill="#FAEBD7"/>
<rect x="116" y="151" width="13" height="14" rx="3" fill="#FAEBD7"/>
<rect x="149" y="17" width="13" height="14" rx="3" fill="#FAEBD7"/>
<rect x="83" y="33" width="13" height="14" rx="3" fill="#FAEBD7"/>
<rect x="98" y="118" width="13" height="14" rx="3" fill="#FAEBD7"/>
<rect x="65" y="68" width="13" height="14" rx="3" fill="#FAEBD7"/>
<rect x="133" y="118" width="13" height="14" rx="3" fill="#FAEBD7"/>
<rect x="48" y="17" width="13" height="14" rx="3" fill="#FAEBD7"/>
<rect x="48" y="101" width="13" height="14" rx="3" fill="#FAEBD7"/>
<rect x="16" y="150" width="13" height="14" rx="3" fill="#FAEBD7"/>
<rect x="149" y="68" width="13" height="14" rx="3" fill="#FAEBD7"/>
<rect x="65" y="134" width="13" height="14" rx="3" fill="#FAEBD7"/>
<rect x="116" y="33" width="13" height="14" rx="3" fill="#FAEBD7"/>
<rect x="98" y="84" width="13" height="14" rx="3" fill="#FAEBD7"/>
<path d="M185.635 66.9785C185.732 66.4902 185.798 66.0996 185.83 65.8066C185.863 65.4811 185.749 65.1393 185.488 64.7812C185.618 64.2604 185.716 63.8535 185.781 63.5605C185.879 63.2676 185.895 62.8607 185.83 62.3398C186.123 61.4935 186.562 60.7773 187.148 60.1914C187.767 59.6055 188.434 59.1172 189.15 58.7266C189.867 58.3034 190.615 57.9616 191.396 57.7012C192.178 57.4082 192.91 57.1641 193.594 56.9688C193.594 56.8385 193.529 56.7734 193.398 56.7734C193.268 56.7734 193.236 56.6921 193.301 56.5293C195.059 56.2038 196.816 55.7318 198.574 55.1133C200.365 54.4948 202.188 53.9414 204.043 53.4531C205.898 52.9648 207.803 52.6719 209.756 52.5742C211.709 52.444 213.76 52.6882 215.908 53.3066C216.038 53.6973 216.217 54.0716 216.445 54.4297C216.673 54.7878 216.901 55.1458 217.129 55.5039C217.389 55.8294 217.617 56.1549 217.812 56.4805C218.008 56.806 218.122 57.1478 218.154 57.5059C218.545 57.8639 218.854 58.2546 219.082 58.6777C219.342 59.0684 219.391 59.6055 219.229 60.2891C218.87 60.5495 218.496 60.8099 218.105 61.0703C217.715 61.3307 217.308 61.5749 216.885 61.8027C215.42 61.4447 213.955 61.3145 212.49 61.4121C211.025 61.5098 209.707 61.6237 208.535 61.7539C208.177 61.3633 207.754 61.1842 207.266 61.2168C206.777 61.2168 206.257 61.2982 205.703 61.4609C205.182 61.5911 204.661 61.7376 204.141 61.9004C203.62 62.0306 203.132 62.0632 202.676 61.998C202.318 62.3236 201.846 62.5514 201.26 62.6816C200.674 62.7793 200.055 62.8607 199.404 62.9258C199.372 63.0885 199.404 63.2025 199.502 63.2676C199.6 63.3327 199.616 63.4629 199.551 63.6582C199.779 63.9512 200.088 64.1628 200.479 64.293C200.869 64.3906 201.26 64.4883 201.65 64.5859C202.074 64.6836 202.448 64.8301 202.773 65.0254C203.099 65.1882 203.311 65.4648 203.408 65.8555C203.994 65.888 204.499 66.0508 204.922 66.3438C205.345 66.6042 205.703 66.9297 205.996 67.3203C206.289 67.7109 206.501 68.1341 206.631 68.5898C206.761 69.013 206.81 69.4036 206.777 69.7617C206.908 70.0872 207.038 70.2174 207.168 70.1523C207.331 70.0872 207.51 70.1686 207.705 70.3965C207.835 70.8848 208.128 71.4056 208.584 71.959C209.072 72.4798 209.447 73.0495 209.707 73.668C209.772 74.6445 209.821 75.5234 209.854 76.3047C209.919 77.0859 209.788 77.8509 209.463 78.5996C208.91 80.0319 208.112 81.3177 207.07 82.457C206.029 83.5964 204.84 84.6055 203.506 85.4844C202.204 86.3307 200.82 87.0794 199.355 87.7305C197.891 88.349 196.442 88.8698 195.01 89.293C194.88 89.2604 194.717 89.2604 194.521 89.293C194.359 89.3255 194.326 89.2279 194.424 89C194.131 89.2604 193.789 89.4232 193.398 89.4883C193.04 89.5534 192.633 89.5697 192.178 89.5371C191.755 89.5371 191.315 89.5208 190.859 89.4883C190.436 89.4557 190.013 89.472 189.59 89.5371C189.329 89.2767 189.085 89.0163 188.857 88.7559C188.662 88.4954 188.499 88.1862 188.369 87.8281C188.206 87.7956 188.125 87.6979 188.125 87.5352C188.158 87.3398 188.092 87.2422 187.93 87.2422C187.93 87.112 187.946 87.0143 187.979 86.9492C188.011 86.8841 188.044 86.819 188.076 86.7539C188.206 86.6562 188.255 86.5911 188.223 86.5586C188.223 86.4935 188.174 86.4447 188.076 86.4121C188.011 86.347 187.93 86.2819 187.832 86.2168C187.767 86.1517 187.751 86.0703 187.783 85.9727C187.946 85.6797 187.995 85.3379 187.93 84.9473C187.897 84.5241 187.865 84.1009 187.832 83.6777C187.799 83.2546 187.832 82.8639 187.93 82.5059C188.027 82.1152 188.304 81.7897 188.76 81.5293C190.094 81.6595 191.348 81.5944 192.52 81.334C193.724 81.0736 194.847 80.7155 195.889 80.2598C196.963 79.804 197.972 79.3158 198.916 78.7949C199.893 78.2415 200.837 77.737 201.748 77.2812C201.846 76.9557 201.992 76.679 202.188 76.4512C202.415 76.2233 202.643 76.0117 202.871 75.8164C203.099 75.5885 203.311 75.3607 203.506 75.1328C203.701 74.8724 203.848 74.5632 203.945 74.2051C203.978 74.0749 203.978 73.9772 203.945 73.9121C203.913 73.847 203.864 73.7982 203.799 73.7656C203.734 73.7005 203.669 73.6354 203.604 73.5703C203.538 73.5052 203.506 73.4076 203.506 73.2773C203.408 73.2448 203.311 73.2122 203.213 73.1797C203.148 73.1471 203.083 73.1309 203.018 73.1309C202.171 72.7077 201.276 72.3496 200.332 72.0566C199.388 71.7637 198.59 71.4382 197.939 71.0801C197.549 71.3405 197.158 71.4056 196.768 71.2754C196.377 71.1452 195.905 71.015 195.352 70.8848C193.984 70.8197 192.682 70.6895 191.445 70.4941C190.241 70.2988 189.069 69.957 187.93 69.4688C187.865 69.2734 187.783 69.1107 187.686 68.9805C187.588 68.8177 187.36 68.7689 187.002 68.834C186.774 68.5085 186.53 68.2155 186.27 67.9551C186.042 67.6621 185.83 67.3366 185.635 66.9785ZM217.324 64.8301C217.259 64.4069 217.178 64.1465 217.08 64.0488C217.308 63.4629 217.471 62.8932 217.568 62.3398C217.699 61.7539 217.796 61.2005 217.861 60.6797C217.926 60.224 217.992 59.8008 218.057 59.4102C218.154 59.0195 218.268 58.6452 218.398 58.2871C218.952 58.1569 219.359 57.929 219.619 57.6035C219.912 57.2454 220.14 56.9362 220.303 56.6758C220.889 56.6432 221.263 56.7246 221.426 56.9199C221.621 57.1152 221.833 57.4408 222.061 57.8965C222.223 58.2546 222.451 58.6452 222.744 59.0684C223.037 59.459 223.477 59.7682 224.062 59.9961C224.16 60.3542 224.274 60.696 224.404 61.0215C224.535 61.347 224.681 61.6888 224.844 62.0469C225.137 62.7305 225.413 63.4466 225.674 64.1953C225.934 64.9115 226.081 65.5951 226.113 66.2461C225.723 66.9948 225.413 67.8574 225.186 68.834C224.99 69.8105 224.86 70.8034 224.795 71.8125C224.762 72.7891 224.795 73.7331 224.893 74.6445C224.99 75.556 225.153 76.321 225.381 76.9395L225.674 77.7207L226.748 77.623C227.92 77.3301 228.978 77.0046 229.922 76.6465C230.866 76.2559 231.745 75.8001 232.559 75.2793C233.372 74.7585 234.154 74.1725 234.902 73.5215C235.651 72.8379 236.432 72.0404 237.246 71.1289C238.027 70.2174 238.727 69.1921 239.346 68.0527C239.964 66.8809 240.469 65.6764 240.859 64.4395C241.283 63.2025 241.608 61.9655 241.836 60.7285C242.064 59.4915 242.21 58.3359 242.275 57.2617C242.894 56.9688 243.236 56.4967 243.301 55.8457L243.154 55.2109C243.057 55.0482 243.008 54.9017 243.008 54.7715C243.04 54.6087 243.089 54.4622 243.154 54.332C243.415 53.5833 243.968 53.0299 244.814 52.6719C245.4 53.0625 245.938 53.4857 246.426 53.9414C246.947 54.3971 247.419 54.8529 247.842 55.3086C247.907 56.1875 248.037 56.9525 248.232 57.6035C248.428 58.222 248.639 58.8242 248.867 59.4102C249.095 59.9635 249.29 60.5007 249.453 61.0215C249.648 61.5423 249.779 62.1771 249.844 62.9258C249.518 63.9023 249.274 64.8301 249.111 65.709C248.981 66.5553 248.851 67.4505 248.721 68.3945L248.623 68.9316C248.037 69.9408 247.451 70.9824 246.865 72.0566C246.312 73.0983 245.856 74.0098 245.498 74.791C245.303 74.9863 245.124 75.2142 244.961 75.4746C244.831 75.735 244.701 75.9954 244.57 76.2559C244.505 76.3535 244.408 76.5163 244.277 76.7441C244.18 76.972 244.082 77.1348 243.984 77.2324L242.812 76.793L242.52 78.3066L241.738 78.502L241.152 79.1855C240.404 80.4876 239.606 81.5781 238.76 82.457C237.946 83.3359 237.018 84.1172 235.977 84.8008C234.967 85.4844 233.812 86.1354 232.51 86.7539C231.24 87.3398 229.775 87.9746 228.115 88.6582C227.464 88.5605 226.895 88.5117 226.406 88.5117C225.951 88.4792 225.495 88.4466 225.039 88.4141C224.583 88.4141 224.144 88.3978 223.721 88.3652C223.298 88.3327 222.809 88.2839 222.256 88.2188C222.126 87.9258 221.947 87.7142 221.719 87.584C221.491 87.4538 221.279 87.3887 221.084 87.3887C220.433 87.0632 219.945 86.6074 219.619 86.0215C219.294 85.4355 218.952 84.7845 218.594 84.0684C218.431 83.6777 218.252 83.2871 218.057 82.8965C217.894 82.5059 217.682 82.1315 217.422 81.7734L218.398 81.4805L217.129 80.0156C217.031 79.918 216.917 79.8203 216.787 79.7227C216.689 79.625 216.592 79.5111 216.494 79.3809V78.4531C216.364 75.7839 216.299 73.3262 216.299 71.0801C216.331 68.8014 216.641 66.7995 217.227 65.0742L217.324 64.8301ZM253.359 89.5371C252.415 89.3092 251.683 88.9349 251.162 88.4141C250.674 87.8607 250.299 87.2259 250.039 86.5098C249.811 85.7611 249.648 84.9473 249.551 84.0684C249.486 83.1895 249.404 82.278 249.307 81.334C249.437 80.9108 249.6 80.5527 249.795 80.2598C250.023 79.9668 250.12 79.5599 250.088 79.0391C250.446 77.9974 250.771 76.9883 251.064 76.0117C251.357 75.0352 251.553 74.026 251.65 72.9844C251.846 72.6914 252.041 72.4961 252.236 72.3984C252.497 70.543 252.529 68.6387 252.334 66.6855C252.139 64.7324 251.813 62.9258 251.357 61.2656C251.39 60.9076 251.439 60.6471 251.504 60.4844C251.569 60.2891 251.569 60.1263 251.504 59.9961C251.439 59.7031 251.536 59.5566 251.797 59.5566C252.057 59.5566 252.318 59.5566 252.578 59.5566C252.578 58.9707 252.464 58.401 252.236 57.8477C252.041 57.2617 251.846 56.5944 251.65 55.8457C251.911 55.2598 252.09 54.6901 252.188 54.1367C252.285 53.5833 252.464 53.0788 252.725 52.623C253.766 52.9486 254.792 53.3229 255.801 53.7461C256.81 54.1693 257.803 54.5924 258.779 55.0156C259.756 55.4062 260.716 55.7969 261.66 56.1875C262.604 56.5456 263.532 56.8385 264.443 57.0664C265.843 58.0755 267.275 59.0846 268.74 60.0938C270.238 61.0703 271.589 62.1608 272.793 63.3652C274.03 64.5371 275.055 65.888 275.869 67.418C276.683 68.9479 277.155 70.7546 277.285 72.8379C277.22 73.0332 277.171 73.196 277.139 73.3262C277.106 73.4564 277.074 73.5866 277.041 73.7168C277.008 73.847 276.992 73.9935 276.992 74.1562C276.992 74.319 276.992 74.5469 276.992 74.8398C275.82 76.8906 274.339 78.6159 272.549 80.0156C270.758 81.4154 268.805 82.6523 266.689 83.7266C264.574 84.8008 262.36 85.7936 260.049 86.7051C257.77 87.584 255.54 88.528 253.359 89.5371ZM258.145 61.8516C257.852 61.8516 257.64 61.9167 257.51 62.0469C257.9 63.5117 258.193 64.8952 258.389 66.1973C258.584 67.4993 258.682 68.8014 258.682 70.1035C258.714 71.4056 258.649 72.7402 258.486 74.1074C258.324 75.4746 258.096 76.9557 257.803 78.5508C258.226 78.5182 258.6 78.4368 258.926 78.3066C259.251 78.1764 259.577 78.0299 259.902 77.8672C260.26 77.7044 260.618 77.5579 260.977 77.4277C261.367 77.2975 261.807 77.2161 262.295 77.1836C262.425 76.9232 262.588 76.7279 262.783 76.5977C263.011 76.4349 263.206 76.2721 263.369 76.1094C264.183 75.7839 264.997 75.4421 265.811 75.084C266.624 74.7259 267.373 74.319 268.057 73.8633C268.74 73.4076 269.359 72.8867 269.912 72.3008C270.465 71.7148 270.921 71.015 271.279 70.2012C271.019 69.7129 270.693 69.306 270.303 68.9805C269.945 68.6224 269.554 68.2806 269.131 67.9551C268.74 67.597 268.35 67.2389 267.959 66.8809C267.601 66.4902 267.308 66.0508 267.08 65.5625C266.559 65.4974 266.104 65.3672 265.713 65.1719C265.322 64.944 264.948 64.7324 264.59 64.5371C264.232 64.3092 263.841 64.0977 263.418 63.9023C263.027 63.707 262.555 63.5931 262.002 63.5605C261.156 63.1048 260.391 62.7956 259.707 62.6328C259.023 62.4375 258.503 62.1771 258.145 61.8516ZM289.785 89.1953C288.353 89.3906 287.051 89.3255 285.879 89C284.707 88.6745 283.649 88.1699 282.705 87.4863C281.794 86.8027 280.996 85.9889 280.312 85.0449C279.661 84.1009 279.124 83.0918 278.701 82.0176C278.408 79.804 278.49 77.8021 278.945 76.0117C279.401 74.1888 280.068 72.5124 280.947 70.9824C281.826 69.4525 282.819 68.0202 283.926 66.6855C285.065 65.3509 286.156 64.0651 287.197 62.8281C287.425 62.9258 287.604 62.9258 287.734 62.8281C287.897 62.7305 288.027 62.6003 288.125 62.4375C288.255 62.2747 288.385 62.112 288.516 61.9492C288.678 61.7865 288.857 61.6725 289.053 61.6074C289.183 61.3145 289.346 61.0703 289.541 60.875C289.769 60.6797 289.997 60.5007 290.225 60.3379C290.485 60.1426 290.713 59.9473 290.908 59.752C291.136 59.5566 291.331 59.3125 291.494 59.0195C291.82 58.9544 292.096 58.8405 292.324 58.6777C292.585 58.515 292.812 58.3359 293.008 58.1406C293.236 57.9453 293.464 57.7663 293.691 57.6035C293.919 57.4408 294.196 57.3105 294.521 57.2129V56.5781C295.238 56.2526 295.758 55.8945 296.084 55.5039C296.41 55.1133 296.8 54.6087 297.256 53.9902C297.614 53.9577 297.891 53.9414 298.086 53.9414C298.314 53.9414 298.656 53.9089 299.111 53.8438C299.404 53.2904 299.681 52.8835 299.941 52.623C300.202 52.3626 300.576 52.0697 301.064 51.7441C301.553 52.0046 302.074 52.1673 302.627 52.2324C303.18 52.265 303.685 52.5091 304.141 52.9648C304.173 53.3555 304.287 53.6647 304.482 53.8926C304.678 54.0879 304.889 54.2832 305.117 54.4785C305.345 54.6413 305.573 54.8203 305.801 55.0156C306.029 55.2109 306.175 55.4876 306.24 55.8457C306.403 55.8457 306.501 55.8132 306.533 55.748C306.598 55.6829 306.712 55.6667 306.875 55.6992C306.94 55.9596 307.005 56.1712 307.07 56.334C307.135 56.4967 307.201 56.6432 307.266 56.7734C307.363 56.9036 307.445 57.0501 307.51 57.2129C307.607 57.3757 307.689 57.571 307.754 57.7988C307.591 58.1895 307.445 58.6126 307.314 59.0684C307.184 59.4915 306.924 59.7845 306.533 59.9473C306.533 60.2077 306.631 60.3542 306.826 60.3867C307.021 60.3867 307.135 60.5007 307.168 60.7285C307.201 61.0215 307.152 61.2656 307.021 61.4609C307.933 62.9909 308.763 64.6022 309.512 66.2949C310.26 67.9551 311.107 69.5501 312.051 71.0801C311.986 71.5358 312.002 71.9915 312.1 72.4473C312.23 72.8704 312.376 73.2936 312.539 73.7168C312.734 74.14 312.913 74.5632 313.076 74.9863C313.239 75.4095 313.353 75.8327 313.418 76.2559C313.483 76.8092 313.483 77.4115 313.418 78.0625C313.353 78.681 313.223 79.2832 313.027 79.8691C312.832 80.4551 312.572 81.0085 312.246 81.5293C311.921 82.0176 311.546 82.3919 311.123 82.6523C310.602 83.3034 309.951 83.8405 309.17 84.2637C308.389 84.6543 307.673 85.1263 307.021 85.6797C306.566 85.9401 306.077 86.1354 305.557 86.2656C305.036 86.3633 304.499 86.4772 303.945 86.6074C303.522 86.8678 303.018 87.1283 302.432 87.3887C301.846 87.6165 301.243 87.8281 300.625 88.0234C300.007 88.2188 299.388 88.3815 298.77 88.5117C298.151 88.6094 297.598 88.6257 297.109 88.5605C295.938 88.9837 294.798 89.2767 293.691 89.4395C292.585 89.6022 291.283 89.5208 289.785 89.1953ZM290.42 71.4219C290.094 72.1706 289.704 72.8542 289.248 73.4727C288.825 74.0586 288.402 74.6608 287.979 75.2793C287.555 75.8978 287.181 76.5651 286.855 77.2812C286.562 77.9648 286.4 78.7786 286.367 79.7227C287.018 80.276 287.783 80.6178 288.662 80.748C289.574 80.8457 290.501 80.862 291.445 80.7969C292.389 80.6992 293.333 80.569 294.277 80.4062C295.221 80.2435 296.068 80.1621 296.816 80.1621C296.816 79.8691 296.947 79.7227 297.207 79.7227C298.574 79.5924 299.844 79.2181 301.016 78.5996C302.188 77.9486 303.408 77.2975 304.678 76.6465C304.84 76.2559 305.052 75.9141 305.312 75.6211C305.573 75.3281 305.719 74.9049 305.752 74.3516C305.589 74.0586 305.475 73.8145 305.41 73.6191C305.378 73.4238 305.361 73.1309 305.361 72.7402C304.515 71.5684 303.783 70.2988 303.164 68.9316C302.546 67.5319 301.829 66.2135 301.016 64.9766C300.951 65.1393 300.82 65.3021 300.625 65.4648C300.43 65.6276 300.218 65.5951 299.99 65.3672C299.893 65.6927 299.746 65.9206 299.551 66.0508C299.355 66.1484 299.128 66.1973 298.867 66.1973C298.639 66.1973 298.395 66.1484 298.135 66.0508C297.907 65.9531 297.695 65.8229 297.5 65.6602C296.361 66.5716 295.221 67.4505 294.082 68.2969C292.975 69.1432 291.966 70.1361 291.055 71.2754C290.892 71.373 290.794 71.4056 290.762 71.373C290.729 71.3405 290.615 71.3568 290.42 71.4219ZM316.201 80.0645C316.234 79.9342 316.25 79.8366 316.25 79.7715C316.283 79.7064 316.234 79.625 316.104 79.5273C316.038 79.2995 316.087 79.153 316.25 79.0879C316.413 79.0228 316.576 78.9577 316.738 78.8926C316.901 76.9395 317.227 75.1654 317.715 73.5703C318.236 71.9427 318.789 70.3639 319.375 68.834C319.993 67.304 320.596 65.7741 321.182 64.2441C321.8 62.6816 322.305 60.9889 322.695 59.166C323.118 58.7428 323.46 58.2383 323.721 57.6523C324.014 57.0664 324.29 56.4805 324.551 55.8945C324.844 55.276 325.169 54.6901 325.527 54.1367C325.918 53.5833 326.439 53.1276 327.09 52.7695C327.383 52.8021 327.643 52.8672 327.871 52.9648C328.132 53.0299 328.376 53.1113 328.604 53.209C328.831 53.3066 329.076 53.388 329.336 53.4531C329.596 53.5182 329.873 53.5508 330.166 53.5508C330.296 53.7135 330.41 53.9089 330.508 54.1367C330.605 54.332 330.736 54.5111 330.898 54.6738L331.777 54.5273C332.201 54.8854 332.575 55.3411 332.9 55.8945C333.226 56.4154 333.454 56.9688 333.584 57.5547C333.714 58.1081 333.698 58.6615 333.535 59.2148C333.372 59.7357 332.998 60.1426 332.412 60.4355C332.445 60.6309 332.445 60.7773 332.412 60.875C332.38 60.9727 332.331 61.0703 332.266 61.168C332.233 61.2331 332.217 61.3145 332.217 61.4121C332.217 61.4772 332.282 61.5749 332.412 61.7051C332.054 61.998 331.729 62.3724 331.436 62.8281C331.143 63.2513 330.898 63.707 330.703 64.1953C330.508 64.6836 330.345 65.1719 330.215 65.6602C330.117 66.1484 330.052 66.6042 330.02 67.0273C330.964 66.0508 332.07 65.1393 333.34 64.293C334.609 63.4466 335.716 62.6491 336.66 61.9004C337.409 61.3796 338.06 60.8913 338.613 60.4355C339.199 59.9473 339.785 59.5078 340.371 59.1172C340.957 58.694 341.559 58.3034 342.178 57.9453C342.829 57.5547 343.48 57.1315 344.131 56.6758C344.456 56.5456 344.701 56.513 344.863 56.5781C345.059 56.6432 345.238 56.7246 345.4 56.8223C345.433 56.5944 345.384 56.4642 345.254 56.4316C345.124 56.3665 345.075 56.2038 345.107 55.9434C345.661 55.7806 346.149 55.5853 346.572 55.3574C347.028 55.1296 347.5 54.918 347.988 54.7227C348.314 55.0807 348.639 55.4714 348.965 55.8945C349.29 56.2852 349.73 56.4967 350.283 56.5293C350.479 56.9525 350.706 57.278 350.967 57.5059C351.26 57.7012 351.536 57.8965 351.797 58.0918C352.09 58.2871 352.334 58.5312 352.529 58.8242C352.725 59.0846 352.839 59.5078 352.871 60.0938C352.741 60.3542 352.578 60.6471 352.383 60.9727C352.22 61.2656 352.074 61.64 351.943 62.0957C351.162 62.8118 350.365 63.4466 349.551 64C348.77 64.5208 347.956 65.0254 347.109 65.5137C346.296 66.002 345.449 66.5065 344.57 67.0273C343.724 67.5482 342.861 68.1504 341.982 68.834C341.787 69.127 341.543 69.3874 341.25 69.6152C340.957 69.8431 340.648 70.071 340.322 70.2988C340.029 70.4941 339.736 70.7057 339.443 70.9336C339.183 71.1615 338.971 71.4382 338.809 71.7637C338.678 71.7637 338.564 71.7799 338.467 71.8125C338.369 71.8125 338.255 71.8288 338.125 71.8613C337.995 72.1217 337.799 72.3333 337.539 72.4961C337.311 72.6589 337.148 72.8704 337.051 73.1309C337.637 74.4004 338.402 75.3607 339.346 76.0117C340.29 76.6628 341.348 77.1348 342.52 77.4277C343.691 77.7207 344.961 77.8835 346.328 77.916C347.695 77.9486 349.111 77.9648 350.576 77.9648C350.739 77.9323 350.804 77.8509 350.771 77.7207C350.771 77.5579 350.869 77.4928 351.064 77.5254C351.553 77.6882 351.96 77.8835 352.285 78.1113C352.611 78.3392 352.92 78.5833 353.213 78.8438C353.506 79.1042 353.783 79.3809 354.043 79.6738C354.336 79.9342 354.661 80.2109 355.02 80.5039C354.954 82.0339 354.499 83.2871 353.652 84.2637C352.839 85.2077 351.748 85.9727 350.381 86.5586C348.493 86.6237 346.849 86.5749 345.449 86.4121C344.049 86.2493 342.666 85.8913 341.299 85.3379C341.201 85.3053 341.104 85.2077 341.006 85.0449C340.941 84.8822 340.876 84.7682 340.811 84.7031C340.55 84.5404 340.257 84.4753 339.932 84.5078C339.606 84.5404 339.329 84.5078 339.102 84.4102C338.809 84.2799 338.32 83.987 337.637 83.5312C336.986 83.0755 336.383 82.6523 335.83 82.2617C335.146 81.7083 334.479 81.1712 333.828 80.6504C333.21 80.097 332.656 79.4948 332.168 78.8438C332.07 78.681 331.924 78.5996 331.729 78.5996C331.566 78.5996 331.403 78.5508 331.24 78.4531C330.101 79.1693 329.141 80.0645 328.359 81.1387C327.611 82.1803 326.878 83.2546 326.162 84.3613C325.446 85.4355 324.681 86.4609 323.867 87.4375C323.086 88.3815 322.093 89.1139 320.889 89.6348C320.531 89.6348 320.221 89.5697 319.961 89.4395C319.701 89.3418 319.456 89.1953 319.229 89C319.001 88.8372 318.773 88.6745 318.545 88.5117C318.317 88.349 318.057 88.235 317.764 88.1699C317.764 87.7142 317.666 87.291 317.471 86.9004C317.308 86.4772 317.129 86.1029 316.934 85.7773C316.771 85.4193 316.641 85.0775 316.543 84.752C316.478 84.4264 316.576 84.1009 316.836 83.7754C316.478 83.4824 316.136 83.2383 315.811 83.043C316.038 82.8151 316.136 82.6035 316.104 82.4082C316.104 82.2129 316.055 82.0176 315.957 81.8223C315.859 81.627 315.778 81.4316 315.713 81.2363C315.68 81.0085 315.745 80.7643 315.908 80.5039C316.038 80.4714 316.087 80.4062 316.055 80.3086C316.055 80.2109 316.104 80.1296 316.201 80.0645ZM357.559 64.8301C357.493 64.4069 357.412 64.1465 357.314 64.0488C357.542 63.4629 357.705 62.8932 357.803 62.3398C357.933 61.7539 358.031 61.2005 358.096 60.6797C358.161 60.224 358.226 59.8008 358.291 59.4102C358.389 59.0195 358.503 58.6452 358.633 58.2871C359.186 58.1569 359.593 57.929 359.854 57.6035C360.146 57.2454 360.374 56.9362 360.537 56.6758C361.123 56.6432 361.497 56.7246 361.66 56.9199C361.855 57.1152 362.067 57.4408 362.295 57.8965C362.458 58.2546 362.686 58.6452 362.979 59.0684C363.271 59.459 363.711 59.7682 364.297 59.9961C364.395 60.3542 364.508 60.696 364.639 61.0215C364.769 61.347 364.915 61.6888 365.078 62.0469C365.371 62.7305 365.648 63.4466 365.908 64.1953C366.169 64.9115 366.315 65.5951 366.348 66.2461C365.957 66.9948 365.648 67.8574 365.42 68.834C365.225 69.8105 365.094 70.8034 365.029 71.8125C364.997 72.7891 365.029 73.7331 365.127 74.6445C365.225 75.556 365.387 76.321 365.615 76.9395L365.908 77.7207L366.982 77.623C368.154 77.3301 369.212 77.0046 370.156 76.6465C371.1 76.2559 371.979 75.8001 372.793 75.2793C373.607 74.7585 374.388 74.1725 375.137 73.5215C375.885 72.8379 376.667 72.0404 377.48 71.1289C378.262 70.2174 378.962 69.1921 379.58 68.0527C380.199 66.8809 380.703 65.6764 381.094 64.4395C381.517 63.2025 381.842 61.9655 382.07 60.7285C382.298 59.4915 382.445 58.3359 382.51 57.2617C383.128 56.9688 383.47 56.4967 383.535 55.8457L383.389 55.2109C383.291 55.0482 383.242 54.9017 383.242 54.7715C383.275 54.6087 383.324 54.4622 383.389 54.332C383.649 53.5833 384.202 53.0299 385.049 52.6719C385.635 53.0625 386.172 53.4857 386.66 53.9414C387.181 54.3971 387.653 54.8529 388.076 55.3086C388.141 56.1875 388.271 56.9525 388.467 57.6035C388.662 58.222 388.874 58.8242 389.102 59.4102C389.329 59.9635 389.525 60.5007 389.688 61.0215C389.883 61.5423 390.013 62.1771 390.078 62.9258C389.753 63.9023 389.508 64.8301 389.346 65.709C389.215 66.5553 389.085 67.4505 388.955 68.3945L388.857 68.9316C388.271 69.9408 387.686 70.9824 387.1 72.0566C386.546 73.0983 386.09 74.0098 385.732 74.791C385.537 74.9863 385.358 75.2142 385.195 75.4746C385.065 75.735 384.935 75.9954 384.805 76.2559C384.74 76.3535 384.642 76.5163 384.512 76.7441C384.414 76.972 384.316 77.1348 384.219 77.2324L383.047 76.793L382.754 78.3066L381.973 78.502L381.387 79.1855C380.638 80.4876 379.84 81.5781 378.994 82.457C378.18 83.3359 377.253 84.1172 376.211 84.8008C375.202 85.4844 374.046 86.1354 372.744 86.7539C371.475 87.3398 370.01 87.9746 368.35 88.6582C367.699 88.5605 367.129 88.5117 366.641 88.5117C366.185 88.4792 365.729 88.4466 365.273 88.4141C364.818 88.4141 364.378 88.3978 363.955 88.3652C363.532 88.3327 363.044 88.2839 362.49 88.2188C362.36 87.9258 362.181 87.7142 361.953 87.584C361.725 87.4538 361.514 87.3887 361.318 87.3887C360.667 87.0632 360.179 86.6074 359.854 86.0215C359.528 85.4355 359.186 84.7845 358.828 84.0684C358.665 83.6777 358.486 83.2871 358.291 82.8965C358.128 82.5059 357.917 82.1315 357.656 81.7734L358.633 81.4805L357.363 80.0156C357.266 79.918 357.152 79.8203 357.021 79.7227C356.924 79.625 356.826 79.5111 356.729 79.3809V78.4531C356.598 75.7839 356.533 73.3262 356.533 71.0801C356.566 68.8014 356.875 66.7995 357.461 65.0742L357.559 64.8301Z" fill="#868686"/>
<path d="M188.114 119.725C188.931 119.725 189.489 119.767 189.789 119.85C190.089 119.933 190.239 120.092 190.239 120.325C190.239 121.108 189.431 121.5 187.814 121.5C186.214 121.5 184.631 120.775 183.064 119.325C180.397 120.958 178.422 121.775 177.139 121.775C176.489 121.775 175.847 121.467 175.214 120.85C174.581 120.217 174.264 119.558 174.264 118.875C174.264 118.175 175.731 116.633 178.664 114.25C178.747 114.167 178.814 114.108 178.864 114.075C178.914 114.042 178.972 113.992 179.039 113.925C179.122 113.858 179.197 113.8 179.264 113.75C178.664 112.283 178.364 110.925 178.364 109.675C178.364 108.408 178.822 107.308 179.739 106.375C180.656 105.442 181.814 104.975 183.214 104.975C184.281 104.975 185.039 105.3 185.489 105.95C185.956 106.583 186.189 107.292 186.189 108.075C186.189 109.558 184.664 111.617 181.614 114.25C182.047 115.183 182.564 116.042 183.164 116.825C183.847 116.358 184.739 115.725 185.839 114.925C187.989 113.375 189.172 112.6 189.389 112.6C189.906 112.6 190.164 112.875 190.164 113.425C190.164 113.742 189.614 114.383 188.514 115.35C187.414 116.317 186.114 117.308 184.614 118.325C185.731 119.258 186.897 119.725 188.114 119.725ZM182.714 106.875C182.097 106.875 181.581 107.167 181.164 107.75C180.764 108.333 180.564 109.033 180.564 109.85C180.564 110.65 180.689 111.483 180.939 112.35C182.956 110.567 183.964 109.208 183.964 108.275C183.964 107.875 183.856 107.542 183.639 107.275C183.439 107.008 183.131 106.875 182.714 106.875ZM176.764 118.525C176.564 118.808 176.464 119.042 176.464 119.225C176.464 119.392 176.531 119.533 176.664 119.65C176.797 119.767 176.964 119.825 177.164 119.825C178.031 119.825 179.522 119.15 181.639 117.8C181.122 117.167 180.614 116.408 180.114 115.525C178.081 117.225 176.964 118.225 176.764 118.525ZM203.376 121.625C203.143 121.625 202.868 121.45 202.551 121.1C202.234 120.733 202.076 120.392 202.076 120.075C202.076 119.758 202.334 118.675 202.851 116.825C203.384 114.975 203.909 112.75 204.426 110.15C204.959 107.533 205.226 105.142 205.226 102.975C205.226 102.475 205.409 102.225 205.776 102.225C206.043 102.225 206.368 102.475 206.751 102.975C207.134 103.458 207.326 103.933 207.326 104.4C207.326 106.45 206.876 109.375 205.976 113.175C207.959 110.492 209.759 109.15 211.376 109.15C212.159 109.15 212.818 109.533 213.351 110.3C213.901 111.067 214.176 111.983 214.176 113.05C214.176 114.1 213.868 115.308 213.251 116.675C212.651 118.042 211.834 119.217 210.801 120.2C209.768 121.167 208.684 121.65 207.551 121.65C206.418 121.65 205.301 121.075 204.201 119.925L204.176 119.95C203.809 121.067 203.543 121.625 203.376 121.625ZM207.351 119.7C208.434 119.7 209.493 118.967 210.526 117.5C211.576 116.017 212.101 114.458 212.101 112.825C212.101 111.842 211.801 111.35 211.201 111.35C210.234 111.35 209.151 112.025 207.951 113.375C206.768 114.725 205.743 116.333 204.876 118.2C205.659 119.2 206.484 119.7 207.351 119.7ZM222.086 109.225C222.836 109.225 223.527 109.608 224.161 110.375C224.794 111.125 225.111 111.808 225.111 112.425C225.111 113.025 224.902 113.642 224.486 114.275C224.686 114.525 224.786 114.742 224.786 114.925C224.786 115.392 224.677 116.192 224.461 117.325C224.261 118.458 224.136 119.2 224.086 119.55C224.052 119.9 224.019 120.183 223.986 120.4C223.952 120.6 223.911 120.8 223.861 121C223.794 121.417 223.644 121.625 223.411 121.625C223.111 121.625 222.861 121.367 222.661 120.85C222.477 120.317 222.369 119.633 222.336 118.8C220.852 120.683 219.477 121.625 218.211 121.625C217.444 121.625 216.686 121.3 215.936 120.65C215.202 119.983 214.836 119.3 214.836 118.6C214.836 117.6 215.202 116.367 215.936 114.9C216.669 113.417 217.619 112.1 218.786 110.95C219.952 109.8 221.052 109.225 222.086 109.225ZM223.236 113.625C223.236 112.075 222.927 111.3 222.311 111.3C221.661 111.3 220.902 111.767 220.036 112.7C219.169 113.617 218.436 114.658 217.836 115.825C217.236 116.992 216.936 117.917 216.936 118.6C216.936 118.883 217.052 119.117 217.286 119.3C217.519 119.467 217.794 119.55 218.111 119.55C218.894 119.55 219.777 119.025 220.761 117.975C221.744 116.908 222.427 115.617 222.811 114.1C222.861 113.85 223.002 113.7 223.236 113.65V113.625ZM231.179 121.625C230.213 121.625 229.304 121.25 228.454 120.5C227.604 119.733 227.179 118.833 227.179 117.8C227.179 116.75 227.529 115.542 228.229 114.175C228.929 112.808 229.829 111.642 230.929 110.675C232.046 109.708 233.129 109.225 234.179 109.225C234.863 109.225 235.463 109.533 235.979 110.15C236.496 110.767 236.754 111.308 236.754 111.775C236.754 111.908 236.713 112.025 236.629 112.125C236.546 112.208 236.421 112.25 236.254 112.25C236.104 112.25 235.829 112.1 235.429 111.8C235.029 111.5 234.671 111.35 234.354 111.35C233.454 111.35 232.404 112.142 231.204 113.725C230.004 115.308 229.404 116.692 229.404 117.875C229.404 118.392 229.563 118.8 229.879 119.1C230.213 119.4 230.738 119.55 231.454 119.55C232.188 119.55 232.854 119.467 233.454 119.3C234.071 119.117 234.546 118.942 234.879 118.775C235.213 118.592 235.471 118.5 235.654 118.5C235.971 118.5 236.129 118.658 236.129 118.975C236.129 119.458 235.546 120.025 234.379 120.675C233.229 121.308 232.163 121.625 231.179 121.625ZM249.337 110.575C249.337 110.725 248.596 111.508 247.112 112.925C246.562 113.458 246.054 114.092 245.587 114.825C245.137 115.542 244.912 116.2 244.912 116.8C244.912 117.4 245.087 117.958 245.437 118.475C245.804 118.975 246.196 119.358 246.612 119.625C247.046 119.875 247.437 120.125 247.787 120.375C248.154 120.625 248.337 120.833 248.337 121C248.337 121.417 248.004 121.625 247.337 121.625C246.687 121.625 245.904 121.258 244.987 120.525C244.087 119.775 243.529 118.942 243.312 118.025C243.229 117.858 243.162 117.7 243.112 117.55C241.979 119.083 241.154 120.15 240.637 120.75C240.137 121.333 239.762 121.625 239.512 121.625C239.262 121.625 238.987 121.433 238.687 121.05C238.387 120.65 238.237 120.325 238.237 120.075C238.237 119.808 238.504 118.733 239.037 116.85C239.587 114.95 240.129 112.675 240.662 110.025C241.212 107.375 241.487 105.008 241.487 102.925C241.487 102.658 241.521 102.475 241.587 102.375C241.671 102.275 241.837 102.225 242.087 102.225C242.337 102.225 242.646 102.475 243.012 102.975C243.379 103.458 243.562 103.933 243.562 104.4C243.562 105.883 243.262 107.958 242.662 110.625C242.062 113.292 241.346 115.825 240.512 118.225C242.396 115.542 244.021 113.375 245.387 111.725C246.771 110.058 247.621 109.225 247.937 109.225C248.271 109.225 248.587 109.383 248.887 109.7C249.187 110.017 249.337 110.308 249.337 110.575ZM252.806 119.125C252.806 119.442 252.989 119.6 253.356 119.6C253.989 119.6 254.756 119.425 255.656 119.075C256.573 118.708 257.081 118.525 257.181 118.525C257.481 118.525 257.631 118.683 257.631 119C257.631 119.483 257.131 120.042 256.131 120.675C255.148 121.308 254.248 121.625 253.431 121.625C252.631 121.625 251.964 121.408 251.431 120.975C250.898 120.525 250.631 120.067 250.631 119.6C250.631 119.133 250.731 118.542 250.931 117.825C251.131 117.092 251.414 116.133 251.781 114.95C252.164 113.75 252.464 112.758 252.681 111.975C251.898 112.158 251.373 112.25 251.106 112.25C250.839 112.25 250.573 112.117 250.306 111.85C250.056 111.567 249.931 111.3 249.931 111.05C249.931 110.65 251.014 110.267 253.181 109.9C253.481 108.517 253.631 107.292 253.631 106.225C253.631 105.725 253.798 105.475 254.131 105.475C254.414 105.475 254.764 105.658 255.181 106.025C255.598 106.375 255.806 106.775 255.806 107.225C255.806 107.675 255.664 108.467 255.381 109.6C256.331 109.517 257.089 109.475 257.656 109.475C258.656 109.475 259.156 109.692 259.156 110.125C259.156 110.375 258.881 110.583 258.331 110.75C257.798 110.917 256.664 111.175 254.931 111.525C254.581 112.842 254.139 114.35 253.606 116.05C253.073 117.733 252.806 118.758 252.806 119.125ZM261.174 112.275L261.099 110.4C261.099 109.617 261.282 109.225 261.649 109.225C261.966 109.225 262.266 109.433 262.549 109.85C262.849 110.25 262.999 110.733 262.999 111.3C262.999 111.85 262.982 112.267 262.949 112.55C264.399 110.35 265.774 109.25 267.074 109.25C267.891 109.25 268.299 109.45 268.299 109.85C268.299 110.05 268.207 110.233 268.024 110.4C267.841 110.567 267.549 110.758 267.149 110.975C266.266 111.358 265.516 111.95 264.899 112.75C264.299 113.533 263.807 114.425 263.424 115.425C263.041 116.425 262.732 117.267 262.499 117.95C262.282 118.633 262.116 119.167 261.999 119.55C261.882 119.933 261.749 120.308 261.599 120.675C261.332 121.342 261.024 121.675 260.674 121.675C260.391 121.675 260.157 121.517 259.974 121.2C259.807 120.867 259.724 120.55 259.724 120.25C259.724 119.933 259.866 119.317 260.149 118.4C260.832 116.3 261.174 114.258 261.174 112.275ZM274.6 109.225C275.35 109.225 276.042 109.608 276.675 110.375C277.309 111.125 277.625 111.808 277.625 112.425C277.625 113.025 277.417 113.642 277 114.275C277.2 114.525 277.3 114.742 277.3 114.925C277.3 115.392 277.192 116.192 276.975 117.325C276.775 118.458 276.65 119.2 276.6 119.55C276.567 119.9 276.534 120.183 276.5 120.4C276.467 120.6 276.425 120.8 276.375 121C276.309 121.417 276.159 121.625 275.925 121.625C275.625 121.625 275.375 121.367 275.175 120.85C274.992 120.317 274.884 119.633 274.85 118.8C273.367 120.683 271.992 121.625 270.725 121.625C269.959 121.625 269.2 121.3 268.45 120.65C267.717 119.983 267.35 119.3 267.35 118.6C267.35 117.6 267.717 116.367 268.45 114.9C269.184 113.417 270.134 112.1 271.3 110.95C272.467 109.8 273.567 109.225 274.6 109.225ZM275.75 113.625C275.75 112.075 275.442 111.3 274.825 111.3C274.175 111.3 273.417 111.767 272.55 112.7C271.684 113.617 270.95 114.658 270.35 115.825C269.75 116.992 269.45 117.917 269.45 118.6C269.45 118.883 269.567 119.117 269.8 119.3C270.034 119.467 270.309 119.55 270.625 119.55C271.409 119.55 272.292 119.025 273.275 117.975C274.259 116.908 274.942 115.617 275.325 114.1C275.375 113.85 275.517 113.7 275.75 113.65V113.625ZM283.694 121.625C282.727 121.625 281.819 121.25 280.969 120.5C280.119 119.733 279.694 118.833 279.694 117.8C279.694 116.75 280.044 115.542 280.744 114.175C281.444 112.808 282.344 111.642 283.444 110.675C284.561 109.708 285.644 109.225 286.694 109.225C287.377 109.225 287.977 109.533 288.494 110.15C289.011 110.767 289.269 111.308 289.269 111.775C289.269 111.908 289.227 112.025 289.144 112.125C289.061 112.208 288.936 112.25 288.769 112.25C288.619 112.25 288.344 112.1 287.944 111.8C287.544 111.5 287.186 111.35 286.869 111.35C285.969 111.35 284.919 112.142 283.719 113.725C282.519 115.308 281.919 116.692 281.919 117.875C281.919 118.392 282.077 118.8 282.394 119.1C282.727 119.4 283.252 119.55 283.969 119.55C284.702 119.55 285.369 119.467 285.969 119.3C286.586 119.117 287.061 118.942 287.394 118.775C287.727 118.592 287.986 118.5 288.169 118.5C288.486 118.5 288.644 118.658 288.644 118.975C288.644 119.458 288.061 120.025 286.894 120.675C285.744 121.308 284.677 121.625 283.694 121.625ZM301.852 110.575C301.852 110.725 301.11 111.508 299.627 112.925C299.077 113.458 298.569 114.092 298.102 114.825C297.652 115.542 297.427 116.2 297.427 116.8C297.427 117.4 297.602 117.958 297.952 118.475C298.319 118.975 298.71 119.358 299.127 119.625C299.56 119.875 299.952 120.125 300.302 120.375C300.669 120.625 300.852 120.833 300.852 121C300.852 121.417 300.519 121.625 299.852 121.625C299.202 121.625 298.419 121.258 297.502 120.525C296.602 119.775 296.044 118.942 295.827 118.025C295.744 117.858 295.677 117.7 295.627 117.55C294.494 119.083 293.669 120.15 293.152 120.75C292.652 121.333 292.277 121.625 292.027 121.625C291.777 121.625 291.502 121.433 291.202 121.05C290.902 120.65 290.752 120.325 290.752 120.075C290.752 119.808 291.019 118.733 291.552 116.85C292.102 114.95 292.644 112.675 293.177 110.025C293.727 107.375 294.002 105.008 294.002 102.925C294.002 102.658 294.035 102.475 294.102 102.375C294.185 102.275 294.352 102.225 294.602 102.225C294.852 102.225 295.16 102.475 295.527 102.975C295.894 103.458 296.077 103.933 296.077 104.4C296.077 105.883 295.777 107.958 295.177 110.625C294.577 113.292 293.86 115.825 293.027 118.225C294.91 115.542 296.535 113.375 297.902 111.725C299.285 110.058 300.135 109.225 300.452 109.225C300.785 109.225 301.102 109.383 301.402 109.7C301.702 110.017 301.852 110.308 301.852 110.575ZM305.721 105.675C305.721 105.342 305.854 105.025 306.121 104.725C306.387 104.425 306.654 104.275 306.921 104.275C307.204 104.275 307.537 104.617 307.921 105.3C308.304 105.967 308.496 106.525 308.496 106.975C308.496 107.142 308.421 107.292 308.271 107.425C308.121 107.558 307.962 107.625 307.796 107.625C307.396 107.625 306.946 107.383 306.446 106.9C305.962 106.417 305.721 106.008 305.721 105.675ZM305.596 109.225C305.912 109.225 306.212 109.417 306.496 109.8C306.779 110.183 306.921 110.558 306.921 110.925C306.921 111.292 306.679 112.392 306.196 114.225C305.712 116.042 305.104 118.083 304.371 120.35C304.087 121.183 303.729 121.6 303.296 121.6C303.062 121.6 302.862 121.508 302.696 121.325C302.529 121.125 302.446 120.908 302.446 120.675C302.446 120.425 302.504 120.042 302.621 119.525C302.754 118.992 302.937 118.292 303.171 117.425C303.421 116.542 303.612 115.825 303.746 115.275C303.896 114.725 304.046 114.108 304.196 113.425C304.346 112.725 304.462 112.167 304.546 111.75C304.646 111.317 304.754 110.883 304.871 110.45C305.104 109.633 305.346 109.225 305.596 109.225ZM310.928 117.275C312.528 114.558 313.828 112.542 314.828 111.225C315.844 109.892 316.669 109.225 317.303 109.225C317.953 109.225 318.561 109.567 319.128 110.25C319.711 110.933 320.003 111.658 320.003 112.425C320.003 113.625 319.728 115.092 319.178 116.825C318.178 120.025 317.278 121.625 316.478 121.625C316.111 121.625 315.928 121.375 315.928 120.875C315.928 120.525 316.103 119.817 316.453 118.75C316.819 117.667 317.153 116.608 317.453 115.575C317.769 114.525 317.928 113.742 317.928 113.225C317.928 112.692 317.844 112.3 317.678 112.05C317.528 111.8 317.369 111.675 317.203 111.675C317.053 111.675 316.894 111.725 316.728 111.825C316.561 111.925 316.369 112.092 316.153 112.325C315.953 112.558 315.761 112.792 315.578 113.025C315.394 113.242 315.161 113.558 314.878 113.975C314.611 114.392 314.386 114.75 314.203 115.05C314.019 115.333 313.753 115.75 313.403 116.3C313.053 116.85 312.786 117.267 312.603 117.55C312.419 117.833 312.178 118.217 311.878 118.7C311.578 119.183 311.336 119.558 311.153 119.825C310.986 120.092 310.794 120.383 310.578 120.7C310.161 121.317 309.828 121.625 309.578 121.625C309.344 121.625 309.069 121.442 308.753 121.075C308.436 120.692 308.278 120.358 308.278 120.075C308.278 119.992 308.336 119.767 308.453 119.4C308.769 118.433 309.119 117.242 309.503 115.825C309.886 114.392 310.094 112.767 310.128 110.95C310.178 109.733 310.353 109.125 310.653 109.125C311.019 109.125 311.386 109.317 311.753 109.7C312.119 110.083 312.303 110.508 312.303 110.975C312.303 111.425 312.161 112.308 311.878 113.625C311.611 114.925 311.294 116.142 310.928 117.275ZM331.708 114.875C331.708 115.542 331.416 116.3 330.833 117.15C330.383 118.167 329.899 119.633 329.383 121.55C328.866 123.45 328.433 124.808 328.083 125.625C327.383 127.325 326.308 128.175 324.858 128.175C323.674 128.175 322.674 127.85 321.858 127.2C321.058 126.567 320.658 125.933 320.658 125.3C320.658 125.033 320.741 124.767 320.908 124.5C321.058 124.233 321.216 124.1 321.383 124.1C321.566 124.1 321.766 124.225 321.983 124.475C322.199 124.725 322.399 124.992 322.583 125.275C322.783 125.575 323.074 125.85 323.458 126.1C323.858 126.35 324.241 126.475 324.608 126.475C324.974 126.475 325.249 126.417 325.433 126.3C325.616 126.2 325.791 126.025 325.958 125.775C326.124 125.542 326.266 125.3 326.383 125.05C326.499 124.817 326.624 124.475 326.758 124.025C326.908 123.592 327.024 123.217 327.108 122.9C327.191 122.583 327.308 122.142 327.458 121.575C327.608 120.992 327.733 120.525 327.833 120.175C326.533 121.142 325.474 121.625 324.658 121.625C323.841 121.625 323.133 121.3 322.533 120.65C321.933 119.983 321.633 119.217 321.633 118.35C321.633 117.467 321.958 116.3 322.608 114.85C323.274 113.4 324.166 112.1 325.283 110.95C326.399 109.8 327.491 109.225 328.558 109.225C329.241 109.225 329.816 109.483 330.283 110C331.049 110.85 331.433 112.058 331.433 113.625C331.433 113.825 331.424 113.967 331.408 114.05C331.608 114.333 331.708 114.608 331.708 114.875ZM323.658 118.6C323.658 118.883 323.749 119.117 323.933 119.3C324.116 119.467 324.349 119.55 324.633 119.55C325.466 119.55 326.449 119.058 327.583 118.075C328.716 117.075 329.516 115.917 329.983 114.6C329.916 114.383 329.858 114.05 329.808 113.6C329.758 113.15 329.708 112.792 329.658 112.525C329.608 112.258 329.499 111.992 329.333 111.725C329.166 111.442 328.949 111.3 328.683 111.3C328.033 111.3 327.299 111.767 326.483 112.7C325.666 113.633 324.991 114.675 324.458 115.825C323.924 116.975 323.658 117.9 323.658 118.6ZM350.857 109.225C351.424 109.225 351.957 109.542 352.457 110.175C352.957 110.792 353.207 111.333 353.207 111.8C353.207 112.083 353.074 112.225 352.807 112.225C352.624 112.225 352.34 112.083 351.957 111.8C351.574 111.5 351.182 111.35 350.782 111.35C350.382 111.35 349.749 111.583 348.882 112.05C348.032 112.517 347.607 113.008 347.607 113.525C347.607 113.908 348.374 114.567 349.907 115.5C350.49 115.867 351.015 116.342 351.482 116.925C351.965 117.492 352.207 118.108 352.207 118.775C352.207 119.425 351.749 120.067 350.832 120.7C349.932 121.317 348.874 121.625 347.657 121.625C346.457 121.625 345.39 121.333 344.457 120.75C343.54 120.167 343.082 119.617 343.082 119.1C343.082 118.883 343.132 118.717 343.232 118.6C343.349 118.467 343.49 118.4 343.657 118.4C343.824 118.4 344.057 118.508 344.357 118.725C345.257 119.375 346.19 119.7 347.157 119.7C348.14 119.7 348.849 119.592 349.282 119.375C349.715 119.142 349.932 118.842 349.932 118.475C349.932 118.092 349.69 117.692 349.207 117.275C348.724 116.842 348.19 116.458 347.607 116.125C347.04 115.792 346.515 115.383 346.032 114.9C345.549 114.417 345.307 113.925 345.307 113.425C345.307 112.542 345.999 111.625 347.382 110.675C348.782 109.708 349.94 109.225 350.857 109.225ZM361.902 113.475C361.902 112.908 361.81 112.375 361.627 111.875C361.443 111.358 361.177 110.983 360.827 110.75C359.677 111.067 358.685 111.958 357.852 113.425C357.035 114.875 356.627 116.242 356.627 117.525C356.627 118.808 356.943 119.608 357.577 119.925C358.777 119.692 359.793 118.875 360.627 117.475C361.477 116.058 361.902 114.725 361.902 113.475ZM355.327 113.7C355.91 112.4 356.668 111.333 357.602 110.5C358.552 109.65 359.518 109.225 360.502 109.225C361.502 109.225 362.335 109.65 363.002 110.5C363.668 111.333 364.002 112.358 364.002 113.575C364.002 114.775 363.71 116.008 363.127 117.275C362.543 118.525 361.735 119.567 360.702 120.4C359.685 121.217 358.602 121.625 357.452 121.625C356.602 121.625 355.893 121.233 355.327 120.45C354.76 119.667 354.477 118.675 354.477 117.475C354.477 116.258 354.76 115 355.327 113.7ZM370.605 104.325C370.605 107.458 369.955 111.525 368.655 116.525C367.821 119.925 367.238 121.625 366.905 121.625C366.671 121.625 366.396 121.442 366.08 121.075C365.78 120.708 365.63 120.425 365.63 120.225C365.63 120.025 365.871 118.992 366.355 117.125C366.838 115.258 367.321 112.967 367.805 110.25C368.288 107.517 368.53 105.058 368.53 102.875C368.53 102.642 368.563 102.475 368.63 102.375C368.696 102.275 368.838 102.225 369.055 102.225C369.271 102.225 369.58 102.467 369.98 102.95C370.396 103.417 370.605 103.875 370.605 104.325ZM380.433 109.225C380.716 109.225 380.991 109.333 381.258 109.55C381.524 109.75 381.658 109.975 381.658 110.225C381.658 110.675 381.049 112.233 379.833 114.9C378.633 117.567 377.774 119.367 377.258 120.3C376.758 121.217 376.316 121.675 375.933 121.675C375.716 121.675 375.449 121.517 375.133 121.2C374.816 120.883 374.583 120.542 374.433 120.175C373.983 119.125 373.499 117.433 372.983 115.1C372.466 112.767 372.208 111.058 372.208 109.975C372.208 109.475 372.358 109.225 372.658 109.225C373.024 109.225 373.399 109.383 373.783 109.7C374.166 110 374.433 110.383 374.583 110.85C374.633 111.117 374.699 111.783 374.783 112.85C375.016 115.483 375.416 117.508 375.983 118.925C376.433 117.958 377.008 116.592 377.708 114.825C378.408 113.042 378.974 111.667 379.408 110.7C379.858 109.717 380.199 109.225 380.433 109.225ZM392.33 113.375C392.33 114.258 391.846 114.983 390.88 115.55C389.93 116.1 388.846 116.375 387.63 116.375C386.43 116.375 385.338 116.242 384.355 115.975C384.121 116.708 384.005 117.367 384.005 117.95C384.005 118.517 384.18 118.958 384.53 119.275C384.896 119.592 385.488 119.75 386.305 119.75C387.138 119.75 387.988 119.608 388.855 119.325C389.738 119.025 390.221 118.875 390.305 118.875C390.738 118.875 390.955 119.042 390.955 119.375C390.955 119.825 390.446 120.317 389.43 120.85C388.413 121.367 387.421 121.625 386.455 121.625C385.155 121.625 384.096 121.242 383.28 120.475C382.463 119.692 382.055 118.708 382.055 117.525C382.055 116.342 382.371 115.108 383.005 113.825C383.638 112.525 384.455 111.433 385.455 110.55C386.455 109.667 387.446 109.225 388.43 109.225C389.413 109.225 390.305 109.692 391.105 110.625C391.921 111.558 392.33 112.475 392.33 113.375ZM388.555 111.2C387.938 111.2 387.296 111.525 386.63 112.175C385.963 112.808 385.396 113.6 384.93 114.55C385.596 114.7 386.355 114.775 387.205 114.775C388.055 114.775 388.796 114.642 389.43 114.375C390.063 114.092 390.38 113.725 390.38 113.275C390.38 112.825 390.171 112.367 389.755 111.9C389.355 111.433 388.955 111.2 388.555 111.2ZM395.109 112.275L395.034 110.4C395.034 109.617 395.218 109.225 395.584 109.225C395.901 109.225 396.201 109.433 396.484 109.85C396.784 110.25 396.934 110.733 396.934 111.3C396.934 111.85 396.918 112.267 396.884 112.55C398.334 110.35 399.709 109.25 401.009 109.25C401.826 109.25 402.234 109.45 402.234 109.85C402.234 110.05 402.143 110.233 401.959 110.4C401.776 110.567 401.484 110.758 401.084 110.975C400.201 111.358 399.451 111.95 398.834 112.75C398.234 113.533 397.743 114.425 397.359 115.425C396.976 116.425 396.668 117.267 396.434 117.95C396.218 118.633 396.051 119.167 395.934 119.55C395.818 119.933 395.684 120.308 395.534 120.675C395.268 121.342 394.959 121.675 394.609 121.675C394.326 121.675 394.093 121.517 393.909 121.2C393.743 120.867 393.659 120.55 393.659 120.25C393.659 119.933 393.801 119.317 394.084 118.4C394.768 116.3 395.109 114.258 395.109 112.275Z" fill="#B8B8B8"/>
</svg>
